<svg width="5129" height="805" viewBox="0 0 5129 805" fill="none" xmlns="http://www.w3.org/2000/svg">
<path d="M574 284C574 485.032 411.032 648 210 648C8.96835 648 -154 485.032 -154 284C-154 82.9684 8.96835 -80 210 -80C411.032 -80 574 82.9684 574 284Z" fill="white"/>
<path d="M260 544.5C260 688.37 143.37 805 -0.5 805C-144.37 805 -261 688.37 -261 544.5C-261 400.63 -144.37 284 -0.5 284C143.37 284 260 400.63 260 544.5Z" fill="white"/>
<path d="M753 129.5C753 294.357 619.357 428 454.5 428C289.643 428 156 294.357 156 129.5C156 -35.357 289.643 -169 454.5 -169C619.357 -169 753 -35.357 753 129.5Z" fill="white"/>
<path d="M2642 -92.5C2642 72.357 2508.36 206 2343.5 206C2178.64 206 2045 72.357 2045 -92.5C2045 -257.357 2178.64 -391 2343.5 -391C2508.36 -391 2642 -257.357 2642 -92.5Z" fill="white"/>
<path d="M5508 130C5508 -116.319 5308.32 -316 5062 -316C4815.68 -316 4616 -116.319 4616 130C4616 376.319 4815.68 576 5062 576C5308.32 576 5508 376.319 5508 130Z" fill="white"/>
<path d="M3924 -130.5C3924 -274.37 3807.37 -391 3663.5 -391C3519.63 -391 3403 -274.37 3403 -130.5C3403 13.3702 3519.63 130 3663.5 130C3807.37 130 3924 13.3702 3924 -130.5Z" fill="white"/>
<path d="M3715 -169.5C3715 -313.37 3598.37 -430 3454.5 -430C3310.63 -430 3194 -313.37 3194 -169.5C3194 -25.6298 3310.63 91 3454.5 91C3598.37 91 3715 -25.6298 3715 -169.5Z" fill="white"/>
<path d="M4113 -135.5C4113 -279.37 3996.37 -396 3852.5 -396C3708.63 -396 3592 -279.37 3592 -135.5C3592 8.37018 3708.63 125 3852.5 125C3996.37 125 4113 8.37018 4113 -135.5Z" fill="white"/>
<path d="M4876 -55.5C4876 -199.37 4759.37 -316 4615.5 -316C4471.63 -316 4355 -199.37 4355 -55.5C4355 88.3702 4471.63 205 4615.5 205C4759.37 205 4876 88.3702 4876 -55.5Z" fill="white"/>
<path d="M2293 -9C2293 -113.382 2208.38 -198 2104 -198C1999.62 -198 1915 -113.382 1915 -9C1915 95.3818 1999.62 180 2104 180C2208.38 180 2293 95.3818 2293 -9Z" fill="white"/>
<path d="M2163 -55C2163 -159.382 2078.38 -244 1974 -244C1869.62 -244 1785 -159.382 1785 -55C1785 49.3818 1869.62 134 1974 134C2078.38 134 2163 49.3818 2163 -55Z" fill="white"/>
<path d="M2784 -55C2784 -159.382 2699.38 -244 2595 -244C2490.62 -244 2406 -159.382 2406 -55C2406 49.3818 2490.62 134 2595 134C2699.38 134 2784 49.3818 2784 -55Z" fill="white"/>
<path d="M5508 502C5508 337.971 5375.03 205 5211 205C5046.97 205 4914 337.971 4914 502C4914 666.029 5046.97 799 5211 799C5375.03 799 5508 666.029 5508 502Z" fill="white"/>
<path d="M976 -80.5C976 63.3702 859.37 180 715.5 180C571.63 180 455 63.3702 455 -80.5C455 -224.37 571.63 -341 715.5 -341C859.37 -341 976 -224.37 976 -80.5Z" fill="white"/>
</svg>
